<?xml version="1.0" encoding="UTF-8" standalone="no"?>
<svg
   xmlns:dc="http://purl.org/dc/elements/1.1/"
   xmlns:cc="http://creativecommons.org/ns#"
   xmlns:rdf="http://www.w3.org/1999/02/22-rdf-syntax-ns#"
   xmlns:svg="http://www.w3.org/2000/svg"
   xmlns="http://www.w3.org/2000/svg"
   height="64"
   width="64"
   version="1.1"
   id="svg2"
   viewBox="0 0 64 64">
  <metadata
     id="metadata16">
    <rdf:RDF>
      <cc:Work
         rdf:about="">
        <dc:format>image/svg+xml</dc:format>
        <dc:type
           rdf:resource="http://purl.org/dc/dcmitype/StillImage" />
        <dc:title></dc:title>
      </cc:Work>
    </rdf:RDF>
  </metadata>
  <defs
     id="defs3051">
    <style
       id="current-color-scheme"
       type="text/css">
      .ColorScheme-Text {
        color:#4d4d4d;
      }
      </style>
  </defs>
  <a
     id="a6"
     transform="matrix(3.6313559,0,0,3.6313559,-11.576271,-11.576271)">
    <path
       id="path8"
       class="ColorScheme-Text"
       d="M 8,4 8,5 20,5 20,4 8,4 Z m 0,2 0,1 5,0 0,-1 -5,0 z m 0,4 0,1 12,0 0,-1 -12,0 z m 0,2 0,1 6,0 0,-1 -6,0 z m 0,4 0,1 12,0 0,-1 -12,0 z m 0,2 0,1 9,0 0,-1 -9,0 z"
       style="color:#4d4d4d;fill:currentColor;fill-opacity:1;stroke:none" />
    <path
       id="path10"
       d="M 5.5,4 C 4.67158,4 4.00001,4.67157 4,5.5 4.00001,6.32843 4.67158,7 5.5,7 6.32842,7 6.99999,6.32843 7,5.5 6.99999,4.67157 6.32842,4 5.5,4 Z m 0,6 C 4.67157,10 4,10.67157 4,11.5 4,12.32843 4.67157,13 5.5,13 6.32843,13 7,12.32843 7,11.5 7,10.67157 6.32843,10 5.5,10 Z"
       style="opacity:1;fill:#31bf5b;fill-opacity:1;stroke:none" />
    <path
       id="path12"
       d="M 5.5,16 C 4.67157,16 4,16.67157 4,17.5 4,18.32843 4.67157,19 5.5,19 6.32843,19 7,18.32843 7,17.5 7,16.67157 6.32843,16 5.5,16 Z"
       style="opacity:1;fill:#31bf5b;fill-opacity:1;stroke:none" />
  </a>
</svg>
