<?xml version="1.0" encoding="UTF-8" standalone="no"?>
<svg
   xmlns:dc="http://purl.org/dc/elements/1.1/"
   xmlns:cc="http://creativecommons.org/ns#"
   xmlns:rdf="http://www.w3.org/1999/02/22-rdf-syntax-ns#"
   xmlns:svg="http://www.w3.org/2000/svg"
   xmlns="http://www.w3.org/2000/svg"
   height="64"
   width="64"
   version="1.1"
   id="svg2"
   viewBox="0 0 64 64">
  <metadata
     id="metadata12">
    <rdf:RDF>
      <cc:Work
         rdf:about="">
        <dc:format>image/svg+xml</dc:format>
        <dc:type
           rdf:resource="http://purl.org/dc/dcmitype/StillImage" />
        <dc:title></dc:title>
      </cc:Work>
    </rdf:RDF>
  </metadata>
  <defs
     id="defs3051">
    <style
       id="current-color-scheme"
       type="text/css">
      .ColorScheme-Text {
        color:#4d4d4d;
      }
      </style>
  </defs>
  <a
     id="a6"
     transform="matrix(2.9016949,0,0,2.9016949,0.08135593,0.08135593)">
    <path
       id="path8"
       class="ColorScheme-Text"
       d="M 1,3 1,4 1,18 1,18.414062 1,19 2,19 21,19 21,18.414062 21,18 21,17 21,3 20.951172,3 20,3 2.4628906,3 2,3 1,3 Z M 2,4 2.0488281,4 8.0234375,9.9765625 2,16 2,4 Z M 3.4628906,4 18.537109,4 11,11.537109 3.4628906,4 Z M 19.951172,4 20,4 20,16 13.976562,9.9765625 19.951172,4 Z M 8.7304688,10.683594 11,12.951172 13.269531,10.683594 19.537109,16.951172 20,17.414062 20,18 2,18 2,17.414062 2.4628906,16.951172 8.7304688,10.683594 Z"
       style="color:#4d4d4d;fill:currentColor;fill-opacity:1;stroke:none" />
  </a>
</svg>
